<svg xmlns="http://www.w3.org/2000/svg" viewBox="0 0 464 464"><path d="M214.572 1l.061-.007-.061.007zM226.807.098c.29-.01.578-.024.868-.033-.29.008-.578.023-.868.033zM229.465.032c.65-.011 1.3-.022 1.952-.025-.652.003-1.302.014-1.952.025zM348.574 56a157.04 157.04 0 0 0-1.882-2.268 19.27 19.27 0 0 1-.595 1.282c.857.266 1.677.609 2.477.986z" fill="#d2875a"/><path d="M440 248h-.029c.001-.192.029-.377.029-.569-30.928 0-56-25.072-56-56v-35.788c0-30.902-9.01-60.085-24.614-84.65.088.742.145 1.493.145 2.258 0 7.863-4.758 14.611-11.549 17.536l.067.063c14.664 14.665 21.237 33.638 18.901 49.688-15.803 2.3-34.432-4.054-48.999-18.247-3.447 4.967-9.182 8.225-15.685 8.225-8.586 0-15.845-5.67-18.245-13.469-7.16 3.618-16.12 2.448-22.102-3.534-5.968-5.968-7.145-14.899-3.557-22.051a19.01 19.01 0 0 1-5.26-2.619c-15.712-.257-29.346-6.462-36.734-15.593 5.776-7.139 15.373-12.487 26.791-14.609-8.043-8.157-12.819-17.881-13.531-26.932 8.892-2.642 19.962-1.566 30.675 3.271a19.005 19.005 0 0 1 1.741-2.035c5.955-5.955 14.859-7.138 22.003-3.58a19.095 19.095 0 0 1 15.495-13.164C280.822 6.629 259.856.891 237.543.097a154.723 154.723 0 0 0-5.967-.091c-16.225.295-53.716 17.657-61.953 75.895C163.457 78.067 160 79.43 160 79.43s3.576-1.394 9.672-3.537C168.644 83.417 168 91.409 168 100.085c33.394 25.356 113.718 61.299 183.768 67.325-2.314 51.915-27.543 96.521-63.768 119.53V308.912c0 3.57 1.195 6.934 3.255 9.654a3.981 3.981 0 0 1 4.378-1.055 4 4 0 0 1 2.32 5.156c-.114.3-.246.594-.369.891.264.115.526.233.798.334l1.129.423c.659-1.724 2.441-2.851 4.31-2.523a4.001 4.001 0 0 1 3.383 4.535c-.04.275-.097.546-.141.82l56.446 21.167C407.595 336.253 440 295.914 440 248zM217.772.668l.176-.016-.176.016z" fill="#d2875a"/><path d="M156.93 327.151c-.044-.274-.101-.544-.141-.819a4.002 4.002 0 0 1 3.383-4.539c1.844-.328 3.642.802 4.308 2.527l1.138-.427c.272-.102.534-.219.798-.335-.123-.297-.255-.59-.369-.89a4.001 4.001 0 0 1 2.32-5.156c1.581-.617 3.302-.133 4.378 1.055a16.062 16.062 0 0 0 1.616-2.601 15.969 15.969 0 0 0 1.638-7.054v-21.903c-32.327-20.482-55.914-58.154-62.313-102.882 13.961-13.625 42.586-45.042 54.094-83.325.072-.239.148-.478.219-.717 0-8.677.644-16.668 1.672-24.191-6.096 2.143-9.672 3.537-9.672 3.537s3.457-1.363 9.623-3.529C177.86 17.664 215.35.302 231.575.007c.142-.002.287-.007.425-.007-.195 0-.388.007-.583.007-.652.002-1.302.014-1.952.025-.597.01-1.194.016-1.79.033-.29.008-.578.023-.868.033-2.976.1-5.929.286-8.86.555l-.176.016c-1.05.098-2.096.207-3.139.326l-.061.007C138.834 9.647 80 73.947 80 152v39.431c0 30.928-25.072 56-56 56 0 .192.027.377.029.569H24c0 47.914 32.405 88.253 76.492 100.315l56.438-21.164z" fill="#be6e4b"/><path d="M232 356c-30.69 0-57.296-13.112-65.42-32.045-.322-.022-.639-.038-.962-.062l-1.138.427c.104.27.186.552.231.848C169.297 356.43 198.227 380 232 380c33.781 0 62.703-23.57 67.281-54.828.044-.299.125-.583.229-.855l-1.129-.423c-.272-.102-.534-.219-.798-.334C289.664 342.704 262.904 356 232 356zM288 288v-1.06c-.272.173-.543.346-.815.517L288 288z" fill="#ffd7b4"/><path d="M232 388c-37.416 0-69.526-26.103-75.07-60.849l-56.438 21.164-21.346 8.005C60.411 363.346 48 381.255 48 401.264V448c0 8.836 7.163 16 16 16h48v-22.349c0-21.025 19.93-36.337 40.245-30.919L232 432l79.755-21.268C332.07 405.314 352 420.626 352 441.651V464h48c8.837 0 16-7.164 16-16v-46.736c0-20.009-12.411-37.918-31.146-44.944l-21.346-8.005-56.446-21.167C301.525 361.897 269.423 388 232 388zM176 308.912z" fill="#ffd7b4"/><path d="M175.806 324.392C184.462 338.313 206.965 348 232 348c27.688 0 52.281-11.848 58.469-28.168.185-.483.458-.904.786-1.266a15.975 15.975 0 0 1-3.255-9.654V288s-38.543 38.248-112.194 36.392z" fill="#ffd7b4"/><path d="M231.945 303.596c-20.205 0-39.24-6.001-55.945-16.586v21.903c0 2.501-.582 4.904-1.638 7.054a16.062 16.062 0 0 1-1.616 2.601c.328.362.602.783.786 1.266a26.384 26.384 0 0 0 2.274 4.56C249.457 326.248 288 288 288 288l-.815-.543c-16.535 10.307-35.319 16.139-55.24 16.139zM166.416 323.558c-.264.116-.526.233-.798.335.323.024.64.04.962.062-.056-.132-.109-.265-.164-.397z" fill="#ffb996"/><path d="M167.781 159.596c0 73.087 34.848 133.31 79.96 142.61-5.182.82-10.428 1.39-15.796 1.39 19.921 0 38.704-5.832 55.239-16.139.273-.17.544-.344.815-.517 36.225-23.009 61.454-67.615 63.768-119.53-70.05-6.026-150.373-41.968-183.768-67.325-.071.24-.147.478-.219.717l.001 58.794zM272 175.432a8 8 0 0 1 16 0v8a8 8 0 0 1-16 0v-8zm-.931 56c7.274 0 10.68 8.823 5.466 13.896-11.51 11.198-27.204 18.104-44.535 18.104s-33.025-6.906-44.535-18.104c-5.214-5.073-1.809-13.896 5.466-13.896h78.138zm-95.069-56a8 8 0 0 1 16 0v8a8 8 0 0 1-16 0v-8z" fill="#ffe6d2"/><path d="M231.945 303.596c5.368 0 10.615-.57 15.796-1.39-45.112-9.301-79.96-69.523-79.96-142.61v-58.793c-11.508 38.282-40.133 69.7-54.094 83.325 6.398 44.728 29.986 82.4 62.313 102.882 16.706 10.584 35.74 16.586 55.945 16.586z" fill="#ffd7b4"/><path d="M184 191.432a8 8 0 0 0 8-8v-8a8 8 0 0 0-16 0v8a8 8 0 0 0 8 8zM280 191.432a8 8 0 0 0 8-8v-8a8 8 0 0 0-16 0v8a8 8 0 0 0 8 8z" fill="#6e4141"/><path d="M187.465 245.327c11.51 11.198 27.204 18.104 44.535 18.104s33.025-6.906 44.535-18.104c5.214-5.073 1.809-13.896-5.466-13.896H192.93c-7.274.001-10.679 8.823-5.465 13.896z" fill="#fff"/><path d="M311.755 410.732L232 432l-79.755-21.268C131.93 405.314 112 420.626 112 441.651V464h240v-22.349c0-21.025-19.93-36.337-40.245-30.919z" fill="#ffebe1"/><path d="M232 380c-33.773 0-62.703-23.57-67.289-54.832a3.932 3.932 0 0 0-.231-.848c-.667-1.725-2.464-2.854-4.308-2.527a4.003 4.003 0 0 0-3.383 4.539c.04.275.097.545.141.819C162.474 361.897 194.584 388 232 388c37.423 0 69.525-26.103 75.062-60.852.044-.274.101-.545.141-.82a4 4 0 0 0-3.383-4.535c-1.869-.327-3.65.8-4.31 2.523a3.99 3.99 0 0 0-.229.855C294.703 356.43 265.781 380 232 380z" fill="#fff"/><path d="M232 348c-25.035 0-47.538-9.688-56.194-23.608a26.242 26.242 0 0 1-2.274-4.56 4.021 4.021 0 0 0-.786-1.266c-1.076-1.188-2.797-1.671-4.378-1.055a4 4 0 0 0-2.32 5.156c.114.3.246.593.369.89.055.132.108.265.165.397C174.704 342.888 201.31 356 232 356c30.904 0 57.664-13.296 65.584-32.441.123-.297.255-.591.369-.891a4.001 4.001 0 0 0-2.32-5.156 3.981 3.981 0 0 0-4.378 1.055 4.017 4.017 0 0 0-.786 1.266C284.281 336.152 259.688 348 232 348z" fill="#fff"/><path d="M342.571 113.556c-5.974 5.974-14.919 7.148-22.075 3.546a19.01 19.01 0 0 1-2.545 5.189c14.567 14.193 33.196 20.547 48.999 18.247 2.336-16.051-4.237-35.024-18.901-49.688l-.067-.063c-.607.261-1.228.497-1.865.695 3.602 7.155 2.428 16.1-3.546 22.074zM245 73.251c0-8.593 5.68-15.857 13.489-18.25-3.203-6.383-2.594-14.172 1.814-20.02-10.714-4.837-21.784-5.913-30.675-3.271.712 9.051 5.488 18.775 13.531 26.932-11.418 2.122-21.015 7.47-26.791 14.609 7.388 9.131 21.022 15.336 36.734 15.593-4.896-3.456-8.102-9.145-8.102-15.593zM320.502 29.419c7.148-3.573 16.066-2.393 22.027 3.568a19.039 19.039 0 0 1 4.171 6.267c4.705-9.812 6.125-20 4.162-28.475-10.485.182-22.202 5.712-31.619 15.596a19 19 0 0 1 1.259 3.044z" fill="#82c888"/><path d="M258.489 55.001a19.073 19.073 0 0 1 5.6-.838c7.138 0 20.354 3.92 28.15 9.724.213-.229.433-.449.662-.662-5.803-7.796-9.724-21.012-9.724-28.15 0-1.989.306-3.906.87-5.708-7.144-3.558-16.048-2.375-22.003 3.58a19.202 19.202 0 0 0-1.741 2.035c-4.408 5.847-5.017 13.636-1.814 20.019zM320.502 29.419a19.1 19.1 0 0 1 .853 5.655c0 7.138-3.921 20.354-9.724 28.15.228.213.448.434.662.662 7.796-5.803 21.012-9.723 28.15-9.723 1.969 0 3.868.299 5.654.853.211-.423.417-.848.595-1.282a19.153 19.153 0 0 0 .008-14.479 19.033 19.033 0 0 0-4.171-6.267c-5.961-5.962-14.879-7.142-22.027-3.569zM311.631 83.277c5.803 7.796 9.724 21.013 9.724 28.15 0 1.976-.3 3.882-.858 5.675 7.156 3.602 16.1 2.428 22.075-3.546 5.974-5.974 7.148-14.919 3.546-22.074a19.093 19.093 0 0 1-5.674.857c-7.138 0-20.354-3.92-28.15-9.724-.215.229-.435.449-.663.662zM292.901 83.277a13.777 13.777 0 0 1-.662-.662c-7.796 5.803-21.012 9.724-28.15 9.724-1.996 0-3.919-.309-5.727-.876-3.588 7.152-2.411 16.083 3.557 22.051 5.982 5.982 14.942 7.152 22.102 3.534a19.073 19.073 0 0 1-.844-5.62c0-7.138 3.921-20.355 9.724-28.151z" fill="#ffd7a5"/><path d="M321.354 111.428c0-7.138-3.921-20.354-9.724-28.15-2.454 2.293-5.741 3.708-9.365 3.708s-6.911-1.415-9.365-3.708c-5.803 7.796-9.724 21.013-9.724 28.15 0 1.957.297 3.843.844 5.62 2.399 7.799 9.659 13.469 18.245 13.469 6.503 0 12.239-3.258 15.685-8.225a19.01 19.01 0 0 0 2.545-5.189c.559-1.793.859-3.699.859-5.675zM284.047 29.366a19.079 19.079 0 0 0-.87 5.708c0 7.138 3.921 20.354 9.724 28.15 2.454-2.293 5.741-3.708 9.365-3.708s6.911 1.414 9.365 3.708c5.803-7.796 9.724-21.012 9.724-28.15 0-1.969-.299-3.868-.853-5.655a18.909 18.909 0 0 0-1.259-3.044c-3.165-6.164-9.571-10.39-16.977-10.39-.927 0-1.832.089-2.724.217a19.095 19.095 0 0 0-15.495 13.164zM292.239 82.616c-2.293-2.454-3.708-5.741-3.708-9.365s1.414-6.911 3.708-9.365c-7.796-5.803-21.012-9.724-28.15-9.724-1.949 0-3.828.295-5.6.838C250.68 57.394 245 64.658 245 73.251c0 6.448 3.206 12.137 8.102 15.593a18.997 18.997 0 0 0 5.26 2.619c1.808.568 3.731.876 5.727.876 7.138 0 20.354-3.92 28.15-9.723zM340.443 54.163c-7.138 0-20.354 3.92-28.15 9.723 2.293 2.455 3.708 5.741 3.708 9.365s-1.414 6.911-3.708 9.365c7.796 5.803 21.012 9.724 28.15 9.724 1.976 0 3.882-.3 5.674-.857a18.914 18.914 0 0 0 1.865-.695c6.791-2.924 11.549-9.672 11.549-17.536 0-.765-.058-1.516-.145-2.258-.785-6.654-4.991-12.244-10.812-14.994-.8-.378-1.621-.72-2.477-.985a19.06 19.06 0 0 0-5.654-.852z" fill="#ffe6cd"/><path d="M292.239 63.886c-2.293 2.454-3.708 5.741-3.708 9.365s1.414 6.911 3.708 9.365c.213.229.433.449.662.662 2.454 2.293 5.741 3.708 9.365 3.708s6.911-1.415 9.365-3.708c.228-.213.448-.433.662-.662 2.293-2.454 3.708-5.741 3.708-9.365s-1.414-6.911-3.708-9.365a13.777 13.777 0 0 0-.662-.662c-2.454-2.293-5.741-3.708-9.365-3.708s-6.911 1.414-9.365 3.708c-.228.214-.449.434-.662.662z" fill="#ffc882"/></svg>