<svg xmlns="http://www.w3.org/2000/svg" viewBox="0 0 464 464"><path d="M321.153 301.718l-.743-.248-.413-.14.61.813c.177-.149.358-.292.546-.425zM232 328l-.095.054h.19zM166.297 284.198L232 328l65.703-43.802a7.975 7.975 0 0 1 6.297-1.117v-15.924C283.934 285.265 258.985 296 231.945 296c-26.991 0-51.899-10.695-71.945-28.743v15.824a7.977 7.977 0 0 1 6.297 1.117zM327.552 313.703L328 312l-1.658 1.989 1.21-.286z" fill="#ffb996"/><path d="M327.552 313.703l-1.209.286L288 360v3.11c0 5.947-6.258 9.815-11.578 7.156l-29.273-14.637a7.992 7.992 0 0 1-7.149 4.425h-16a7.992 7.992 0 0 1-7.149-4.425l-29.273 14.637c-5.319 2.659-11.578-1.208-11.578-7.156V360l-40-48 40 152h112l39.552-150.297zM232 380a6.467 6.467 0 1 1 0 12.934A6.467 6.467 0 0 1 232 380zm0 25.867a6.467 6.467 0 1 1 0 12.934 6.467 6.467 0 0 1 0-12.934zm0 38.8a6.467 6.467 0 1 1 0-12.934 6.467 6.467 0 0 1 0 12.934z" fill="#ffebe1"/><path d="M247.742 294.61c-45.112-9.301-79.96-69.523-79.96-142.61v-51.844c-13.966-6.508-22.649-11.499-23.673-12.093l-.024-.014L144 88l-13.247 60.823c-1.342 5.367-7.596 7.785-12.199 4.716l-7.982-5.321a14.736 14.736 0 0 1-5.04-5.748C99.743 148.313 96 157.572 96 168c0 17.124 10.087 31.105 22.771 31.958 7.961 27.053 22.461 50.401 41.229 67.298C180.047 285.305 204.955 296 231.945 296c5.368 0 10.615-.57 15.797-1.39z" fill="#ffd7b4"/><path d="M192 175.836v-8a8 8 0 0 0-16 0v8a8 8 0 0 0 16 0zM280 183.836a8 8 0 0 0 8-8v-8a8 8 0 0 0-16 0v8a8 8 0 0 0 8 8z" fill="#6e4141"/><path d="M276.535 237.731c5.214-5.072 1.809-13.896-5.466-13.896H192.93c-7.274 0-10.68 8.823-5.466 13.896 11.51 11.198 27.204 18.104 44.535 18.104 17.332.001 33.026-6.905 44.536-18.104z" fill="#fff"/><path d="M353.427 148.218l-7.982 5.321c-4.603 3.068-10.857.651-12.199-4.716L328 120l-32-16v39.36c-19.219-10.296-35.102-22.616-48-34.856v19.333c-32.504-7.193-61.236-18.834-80.219-27.68v51.844c0 73.087 34.848 133.31 79.96 142.61-5.182.82-10.428 1.39-15.796 1.39 27.04 0 51.989-10.735 72.055-28.844 18.714-16.889 33.173-40.195 41.119-67.194C357.854 199.183 368 185.173 368 168c0-10.428-3.743-19.688-9.533-25.53a14.743 14.743 0 0 1-5.04 5.748zM272 167.836a8 8 0 0 1 16 0v8a8 8 0 0 1-16 0v-8zm-96 8v-8a8 8 0 0 1 16 0v8a8 8 0 0 1-16 0zm16.931 48h78.139c7.274 0 10.68 8.823 5.466 13.896-11.51 11.198-27.204 18.104-44.535 18.104-17.331 0-33.025-6.906-44.535-18.104-5.215-5.073-1.81-13.896 5.465-13.896z" fill="#ffe6d2"/><path d="M166.53 1.939c.197-.044.393-.091.59-.133-.197.042-.393.089-.59.133zM168 100.254c-14.061-6.542-22.838-11.581-23.892-12.191 1.024.595 9.707 5.585 23.673 12.093 18.982 8.845 47.715 20.486 80.219 27.68v-19.333c12.898 12.241 28.781 24.561 48 34.856v-39.36l32 16 5.247 28.823c1.342 5.367 7.596 7.785 12.199 4.716l7.982-5.321a14.736 14.736 0 0 0 5.04-5.748 14.737 14.737 0 0 0 1.533-6.534V80c0-44.183-35.817-80-80-80h-96c-5.483 0-10.829.573-16 1.63v98.624zM144.084 88.049L144 88l.084.049z" fill="#8c5046"/><path d="M110.573 148.218l7.982 5.321c4.603 3.068 10.857.651 12.199-4.716L144 88l.084.049.024.014c1.054.611 9.831 5.649 23.892 12.191V1.607c-.295.06-.585.135-.879.199-.198.042-.393.089-.59.133C130.753 9.912 104 41.821 104 80v55.937c0 2.302.543 4.53 1.533 6.534a14.747 14.747 0 0 0 5.04 5.747z" fill="#6e4141"/><path d="M136 312l7.392-9.856a7.96 7.96 0 0 0-7.346-1.585l-61.232 17.495C54.207 323.941 40 342.775 40 364.207V448c0 8.836 7.164 16 16 16h60v-32.355c0-16.027-6.242-31.094-17.574-42.426l-51.699-49.28a47.885 47.885 0 0 1 4.683-6.589l52.605 50.146C116.926 396.406 124 413.48 124 431.645V464h52l-40-152zM415.232 336.561c.255.358.497.725.741 1.089-.243-.365-.488-.73-.741-1.089zM416.475 338.404c.039.061.076.124.114.185-.039-.061-.075-.124-.114-.185zM417.416 339.947l-51.691 49.272c-11.332 11.332-17.574 26.398-17.574 42.426V464H408c8.836 0 16-7.164 16-16v-83.793a47.9 47.9 0 0 0-6.584-24.26z" fill="#6b3c41"/><path d="M360.136 383.496l52.605-50.146a49.36 49.36 0 0 1 2.454 3.16 47.94 47.94 0 0 0-26.009-18.457l-61.232-17.495a7.962 7.962 0 0 0-7.347 1.586L328 312l-.448 1.703L288 464h52.151v-32.355c0-18.165 7.075-35.239 19.985-48.149z" fill="#6b3c41"/><path d="M136 312l40 48v-35.001c0-5.947 6.259-9.815 11.578-7.155l29.273 14.636a7.992 7.992 0 0 1 7.149-4.425h7.905L232 328l-65.703-43.802a7.976 7.976 0 0 0-6.297-1.117 7.96 7.96 0 0 0-4.541 2.974l-12.067 16.089L136 312zM297.703 284.198L232 328l.095.054H240a7.992 7.992 0 0 1 7.149 4.425l29.273-14.636c5.319-2.66 11.578 1.208 11.578 7.155V360l38.342-46.011L328 312l-7.392-9.856-.61-.813-11.457-15.276a7.97 7.97 0 0 0-4.541-2.974 7.977 7.977 0 0 0-6.297 1.117z" fill="#ffe1c8"/><path d="M216 336.054c0-1.287.311-2.498.851-3.575l-29.273-14.636c-5.319-2.66-11.578 1.208-11.578 7.155v38.112c0 5.947 6.259 9.815 11.578 7.156l29.273-14.637a7.949 7.949 0 0 1-.851-3.575v-16zM276.422 317.843l-29.273 14.636a7.949 7.949 0 0 1 .851 3.575v16a7.949 7.949 0 0 1-.851 3.575l29.273 14.637c5.319 2.659 11.578-1.208 11.578-7.156v-38.111c0-5.947-6.258-9.815-11.578-7.156z" fill="#d2504b"/><path d="M248 336.054a7.949 7.949 0 0 0-.851-3.575 7.992 7.992 0 0 0-7.149-4.425h-16a7.992 7.992 0 0 0-7.149 4.425 7.949 7.949 0 0 0-.851 3.575v16c0 1.287.311 2.498.851 3.575a7.992 7.992 0 0 0 7.149 4.425h16a7.992 7.992 0 0 0 7.149-4.425 7.949 7.949 0 0 0 .851-3.575v-16z" fill="#be3c3c"/><path d="M104.016 383.496L51.41 333.35a47.946 47.946 0 0 0-4.683 6.589l51.699 49.28C109.758 400.551 116 415.617 116 431.645V464h8v-32.355c0-18.165-7.074-35.239-19.984-48.149zM365.726 389.219l51.691-49.272.008-.008a45.298 45.298 0 0 0-.835-1.35c-.039-.061-.075-.124-.114-.185-.163-.254-.333-.503-.501-.754-.245-.365-.487-.731-.741-1.089l-.037-.051a49.36 49.36 0 0 0-2.454-3.16l-52.605 50.146c-12.91 12.91-19.984 29.984-19.984 48.148V464h8v-32.355c-.003-16.028 6.239-31.094 17.572-42.426z" fill="#7d5050"/><circle cx="232" cy="438.2" r="6.467" fill="#ffd7b4"/><circle cx="232" cy="412.333" r="6.467" fill="#ffd7b4"/><circle cx="232" cy="386.467" r="6.467" fill="#ffd7b4"/></svg>