<svg xmlns="http://www.w3.org/2000/svg" height="98.543" width="137.543" viewBox="0 0 137.543 98.543"><path fill="#cfcec7" d="M59.065 88.89l19.412 8.672 19.414-8.672 19.412 8.672V10.653L97.891 1.981l-19.414 8.672-19.412-8.672-19.413 8.672L20.24 1.981v86.91l19.412 8.67z"/><path opacity=".28" fill="#fff" d="M59.478 86.063l18.586 8.045 18.586-8.045 18.586 8.045V13.48L96.65 5.435 78.064 13.48 59.478 5.435 40.892 13.48 22.307 5.435v80.628l18.585 8.045z"/><path d="M96.65 86.063l18.586 8.045V70.312c-3.267.451-7.632 1.797-9.911.793-3.731-1.643-10.57 7.123-12.435 6.575-1.865-.548-2.487-7.397-.932-10.958 1.555-3.561-2.487-8.766-4.041-12.328-1.554-3.561-10.1-.157-11.964 1.487-1.865 1.643.152 11.115.773 14.128s-4.351 9.04-8.082 12.602c-1.488 1.42-1.887 4.018-1.83 6.628l11.25 4.87 18.586-8.046zM93.305 23.279c-7.857-2.309-22.262-.577-26.519-3.75-4.256-3.174-6.22-8.656-6.547-10.387-.108-.57-1.283-1.641-2.807-2.82l-16.54 7.158-18.585-8.045v53.368c2.224 1.088 4.341 1.74 5.522 1.117 3.273-1.73 16.041-16.445 20.625-17.022 4.583-.577 10.803 3.173 9.166 7.79-1.637 4.616 7.857 7.212 8.84 2.596.982-4.616 14.404-17.6 19.642-18.176 5.238-.577 15.06-9.521 7.203-11.83zM54.15 67.448c-2.108.398-4.369-2.523-6.176-1.594-1.807.93-3.917 3.32-5.725 3.585-1.807.266-6.479 5.71-6.628 7.17-.15 1.461-4.068 5.444-6.63 7.037-1.553.967-3.38 2.37-4.58 3.327l16.482 7.134L51.7 89.43c.064-.534.1-1.166.04-1.8-.15-1.594 2.863-2.258 4.069-4.117 1.205-1.858-.602-4.514-2.863-6.24-2.26-1.726 1.959-2.257 2.863-4.381.904-2.125 3.465-2.257 4.67-3.453 1.206-1.195-4.219-2.39-6.328-1.991zM115.236 13.48l-5.653-2.447-1.424.183s-4.92 7.752-5.218 8.278c-.298.525-1.342 2.627-1.342 3.153 0 .526-1.789 3.942-1.49 4.993.298 1.05 2.235 3.68 3.428 4.467 1.193.789 1.64 1.84 2.386 3.679.745 1.84-.745 2.76-1.492 5.65-.745 2.89-2.087 3.81-3.727 6.438-1.64 2.628-2.087 4.599-1.342 7.095.577 1.928 11.105 7.771 15.874 10.334V13.48z" opacity=".6" fill="#3ead26"/><g opacity=".8" fill="#484e4e"><path d="M110.277 24.059c.597.333.743.993.327 1.471l-.19.217c-.415.48-1.237.597-1.834.262l-10.81-6.047c-.598-.334-.744-.993-.327-1.472l.189-.217c.416-.478 1.237-.596 1.834-.262l10.81 6.048z"/><path d="M99.037 25.664c-.416.479-.27 1.137.327 1.471l.27.152c.598.333 1.42.216 1.836-.262l7.541-8.669c.416-.479.27-1.137-.326-1.471l-.27-.151c-.598-.334-1.42-.217-1.836.262l-7.542 8.668z"/></g><g fill="none" stroke="#fff" stroke-width="2" stroke-linecap="round" stroke-linejoin="round"><path d="M40.112 104.046s.158.076.45.208" transform="matrix(.86663 0 0 .69492 9.172 1.981)"/><path d="M44.306 105.757c7.163 2.581 21.281 6.061 24.336-5.142 4.135-15.161 18.052-15.791 20.808-14.688 2.757 1.103 19.993-14.892-2.448-24.276-15.161-6.34-26.355-22.565-17.81-26.423 6.913-3.122 25.01-4.981 31.672-5.578" stroke-dasharray="1.0094,4.0378" transform="matrix(.86663 0 0 .69492 9.172 1.981)"/><path d="M102.879 29.478l.494-.039" transform="matrix(.86663 0 0 .69492 9.172 1.981)"/></g><g fill="#fff"><path opacity=".4" d="M59.065 1.981l-19.413 8.672v86.91l19.413-8.673zM97.89 1.981l-19.413 8.672v86.91l19.414-8.673z"/></g><g transform="matrix(.86663 0 0 .69492 9.172 1.981)"><circle r="13.104" cy="78.782" cx="40.112" fill="#ff7526"/><circle r="9.563" cy="78.782" cx="40.112" fill="#ff7526"/><path d="M40.112 78.782H27.008c0 11.39 13.104 25.264 13.104 25.264s13.104-13.874 13.104-25.264H40.112z" fill="#ff7526"/><circle r="6.044" cy="78.782" cx="40.112" fill="#fff"/></g></svg>