<svg xmlns="http://www.w3.org/2000/svg" height="160.524" width="292.524" viewBox="0 0 292.524 160.524"><path d="M292.25 156.382l-33.86-34.299h.008L146.262 2.527h-.001L34.126 122.084h.008L.273 156.382a.947.947 0 1 0 1.349 1.331l35.175-35.63h26.386l-32.43 32.43a.948.948 0 0 0 1.34 1.34l33.77-33.772H226.658l33.771 33.771a.948.948 0 1 0 1.341-1.34l-32.431-32.43h26.386l35.176 35.631a.946.946 0 0 0 1.341.01.948.948 0 0 0 .008-1.34z" fill="#299113"/><path fill="#ff7526" d="M146.262 13.711l-90.181 96.551 13.847 47.286h152.668l13.847-47.286z"/><path d="M146.262 2.527L34.126 122.084h.008L.273 156.382a.947.947 0 1 0 1.349 1.331l35.175-35.63h22.745l.825 2.815-29.613 29.614a.948.948 0 0 0 1.34 1.34l28.88-28.88 8.954 30.574h76.334V2.527z" opacity=".16" fill="#fff"/><path fill="#484e4e" d="M146.262 157.548h52.398l-52.398-99.3-52.399 99.3z"/><g fill="#cfcec7"><path d="M146.262 58.247s-9.12 30.061-52.69 99.301c0 0-2.702-10.133-10.809-14.186 0 0 37.154-35.464 63.499-85.115zM146.262 58.247s9.12 30.061 52.69 99.301c0 0 2.702-10.133 10.809-14.186 0 0-37.154-35.464-63.499-85.115z"/></g></svg>