<svg xmlns="http://www.w3.org/2000/svg" viewBox="0 0 182.116 182.116"><path d="M126.645 5.14C101.7 5.14 81.28 35.835 79.584 74.7c12.913 10.177 29.268 16.262 47.061 16.262s34.147-6.084 47.062-16.262c-1.696-38.866-22.117-69.56-47.062-69.56z" fill-rule="evenodd" clip-rule="evenodd" fill="#d9eced"/><ellipse transform="rotate(-76.956 108.78 28.09)" cx="108.78" cy="28.09" rx="5.761" ry="3.687" fill-rule="evenodd" clip-rule="evenodd" fill="#e7b791"/><ellipse transform="rotate(-103.044 54.953 25.668)" cx="54.952" cy="25.668" rx="5.761" ry="3.687" fill-rule="evenodd" clip-rule="evenodd" fill="#e7b791"/><path d="M88.545 61.007c12.081 3.577 31.554 17.058 43.479 32.264l3.438-2.816c-7.733-13.129-22.751-28.955-31.339-34.235-4.417-2.718-13.874.441-15.578 4.787z" fill-rule="evenodd" clip-rule="evenodd" fill="#1a1a1a"/><g fill-rule="evenodd" clip-rule="evenodd" fill="#323232"><path d="M84.184 177.652l-3.364-72.278h15.568l-3.248 72.278h-8.956z"/><path d="M69.589 177.652l-3.365-72.278h15.568l-3.247 72.278h-8.956z"/></g><path fill-rule="evenodd" clip-rule="evenodd" fill="#1a1a1a" d="M64.908 106.285h32.597v3.379H64.908z"/><path d="M97.505 107.88l5.669-52.23-12.722-5.559H72.159c-4.241 1.853-10.139 3.374-12.722 5.559l5.47 52.23h32.598z" fill-rule="evenodd" clip-rule="evenodd" fill="#323232"/><path fill-rule="evenodd" clip-rule="evenodd" fill="#f5f0f0" d="M72.159 50.091l9.14 44.001 9.153-44.001z"/><g fill-rule="evenodd" clip-rule="evenodd" fill="#1a1a1a"><path d="M72.159 50.091l-8.58 9.625 9.923 8.506-7.088 4.607 14.885 21.263z"/><path d="M90.452 50.091l8.567 9.625-9.923 8.506 7.088 4.607-14.885 21.263z"/></g><path fill-rule="evenodd" clip-rule="evenodd" fill="#1a1a1a" d="M80.178 107.88h2.481V92.15l-1.36 1.29-1.121-1.064z"/><path fill-rule="evenodd" clip-rule="evenodd" fill="#f5f0f0" d="M72.159 50.091l5.892-5.804 3.368 5.804-7.592 8.017zM90.452 50.091l-5.748-5.804-3.285 5.804 7.405 8.017z"/><path fill-rule="evenodd" clip-rule="evenodd" fill="#323232" d="M73.827 58.108l7.592-4.008 7.405 4.008-7.405-8.017z"/><path fill-rule="evenodd" clip-rule="evenodd" fill="#323232" d="M81.419 50.091L77.623 54.1l3.796 10.66 3.795-10.66z"/><path fill-rule="evenodd" clip-rule="evenodd" fill="#323232" d="M80.059 60.942h2.523l3.294 11.149-4.577 22.001-4.569-22.001z"/><path d="M69.655 182.116c4.896 0 8.89-2.006 8.89-4.465s-3.993-4.465-8.89-4.465c-4.896 0-8.89 2.006-8.89 4.465s3.994 4.465 8.89 4.465zM93.073 182.116c4.896 0 8.891-2.006 8.891-4.465s-3.994-4.465-8.891-4.465c-4.896 0-8.89 2.006-8.89 4.465s3.995 4.465 8.89 4.465z" fill-rule="evenodd" clip-rule="evenodd" fill="#1a1a1a"/><path d="M81.419 50.077c14.811 0 26.89-9.312 26.89-20.728 0-11.417-12.079-20.728-26.89-20.728-14.81 0-26.89 9.311-26.89 20.728 0 11.416 12.08 20.728 26.89 20.728z" fill-rule="evenodd" clip-rule="evenodd" fill="#e7b791"/><g fill-rule="evenodd" clip-rule="evenodd" fill="#323232"><path d="M70.283 34.789c.823 0 1.494-1.174 1.494-2.615 0-1.44-.671-2.615-1.494-2.615s-1.494 1.175-1.494 2.615c0 1.441.671 2.615 1.494 2.615zM86.632 34.789c.823 0 1.494-1.174 1.494-2.615 0-1.44-.671-2.615-1.494-2.615s-1.494 1.175-1.494 2.615c0 1.441.671 2.615 1.494 2.615z"/></g><path d="M91.832 4.5c-2.68 11.31 8.386 23.844 16.947 23.589 1.387-9.329-7.052-21.883-16.947-23.589z" fill-rule="evenodd" clip-rule="evenodd" fill="#5e3a1d"/><path d="M88.528 41.216c-3.868.749-13.336.683-17.747 0 4.555 5.472 14.114 5.662 17.747 0z" fill-rule="evenodd" clip-rule="evenodd" fill="#c79369"/><path d="M112.859 61.832c-8.898 9.437-14.507 24.999-29.697 35.082l2.393 3.443c12.924-6.295 24.939-16.337 30.546-24.021 2.884-3.952-.222-17.707-3.242-14.504zM125.863 60.293c9.105 7.642 20.879 26.633 25.473 44.277l4.034-1.143c-1.749-14.269-8.785-33.612-14.228-41.413-2.799-4.012-12.168-4.838-15.279-1.721z" fill-rule="evenodd" clip-rule="evenodd" fill="#e7b791"/><g fill-rule="evenodd" clip-rule="evenodd" fill="#e7b791"><path d="M129.381 177.904l-3.175-68.19h14.688l-3.064 68.19h-8.449z"/><path d="M115.611 177.904l-3.174-68.19h14.688l-3.063 68.19h-8.451z"/></g><path fill-rule="evenodd" clip-rule="evenodd" fill="#c79369" d="M120.849 48.104h11.633v16.417h-11.633z"/><path d="M133.903 94.544l6.67-33.215-8.091-3.535h-11.633c-2.696 1.381-6.357 2.317-8.09 4.144l6.58 32.606h14.564z" fill-rule="evenodd" clip-rule="evenodd" fill="#e7b791"/><path d="M115.673 182.116c4.62 0 8.388-1.893 8.388-4.212 0-2.32-3.768-4.213-8.388-4.213-4.619 0-8.387 1.893-8.387 4.213 0 2.319 3.768 4.212 8.387 4.212zM137.768 182.116c4.619 0 8.387-1.893 8.387-4.212 0-2.32-3.768-4.213-8.387-4.213-4.619 0-8.387 1.893-8.387 4.213 0 2.319 3.768 4.212 8.387 4.212z" fill-rule="evenodd" clip-rule="evenodd" fill="#f5f0f0"/><path d="M158.939 105.137c.65 1.393.174 2.119-.911 2.206 1.22 1.924.601 4.256-.482 4.763-2.107.985-4.9-.537-6.239-3.4-1.339-2.863-.716-5.983 1.392-6.969 2.107-.986 4.901.537 6.24 3.4z" fill-rule="evenodd" clip-rule="evenodd" fill="#e7b791"/><path d="M60.029 54.901c2.865 11.893 9.681 29.365 19.888 40.521l-1.607 3.576c-8.684-7.071-16.759-19.975-20.526-28.292-1.939-4.279-.416-13.885 2.245-15.805z" fill-rule="evenodd" clip-rule="evenodd" fill="#1a1a1a"/><path d="M84.819 96.394c1.222 1.078 1.064 1.986.048 2.529 1.999 1.355 2.384 3.883 1.545 4.833-1.631 1.849-4.989 1.55-7.502-.667-2.512-2.217-3.226-5.513-1.594-7.361 1.631-1.85 4.991-1.551 7.503.666z" fill-rule="evenodd" clip-rule="evenodd" fill="#e7b791"/><path d="M80.192 96.608c-1.152 1.018-1.005 1.874-.045 2.387-1.886 1.277-2.249 3.663-1.458 4.56 1.539 1.744 4.708 1.462 7.078-.63 2.369-2.091 3.043-5.2 1.503-6.944-1.539-1.746-4.708-1.464-7.078.627z" fill-rule="evenodd" clip-rule="evenodd" fill="#e7b791"/><path d="M136.045 94.544l3.263-21.568c.058-.264.088-.535.088-.811 0-2.803-3.081-5.076-6.884-5.076-2.481 0-4.656.968-5.867 2.42-1.211-1.452-3.386-2.42-5.867-2.42-3.803 0-6.884 2.273-6.884 5.076 0 .267.027.529.081.785l3.191 21.594h18.879z" fill-rule="evenodd" clip-rule="evenodd" fill="#f5f0f0"/><path d="M126.645 92.081c-24.945 0-45.365 30.695-47.061 69.561 12.913 10.177 29.268 16.262 47.061 16.262s34.147-6.085 47.062-16.262c-1.696-38.865-22.117-69.561-47.062-69.561z" fill-rule="evenodd" clip-rule="evenodd" fill="#f5f0f0"/><path d="M136.556 97.596c1.497 0 2.719-1.956 2.719-4.354 0-2.397-1.222-4.354-2.719-4.354-1.496 0-2.717 1.957-2.717 4.354 0 2.398 1.221 4.354 2.717 4.354z" fill-rule="evenodd" clip-rule="evenodd" fill="#e7b791"/><path d="M33.421 107.751l30.492-6.14 8.202-1.651 14.931-3.006.678 3.364-14.931 3.007.677 3.364c-12.127 3.172-33.758 8.038-40.049 1.062z" fill-rule="evenodd" clip-rule="evenodd" fill="#d9eced"/><g fill-rule="evenodd" clip-rule="evenodd" fill="#f5f0f0"><path d="M30.751 59.082h17.6c3.164 0 5.752 2.588 5.752 5.753v22.746H24.998V64.835c0-3.164 2.589-5.753 5.753-5.753z"/><path d="M25.232 81.621H53.87c3.164 0 5.753 2.588 5.753 5.752v22.745H19.479V87.373c0-3.164 2.589-5.752 5.753-5.752z"/><path d="M18.842 104.89h41.416c3.164 0 5.753 2.589 5.753 5.753v22.745H13.09v-22.745c0-3.164 2.589-5.753 5.752-5.753z"/></g><path d="M82.659 105.244c2.409 0 4.374-1.66 4.374-3.696 0-2.035-1.965-3.695-4.374-3.695-2.41 0-4.375 1.66-4.375 3.695s1.965 3.696 4.375 3.696z" fill-rule="evenodd" clip-rule="evenodd" fill="#e7b791"/><path fill-rule="evenodd" clip-rule="evenodd" fill="#1a1a1a" d="M8.409 133.388h62.282v5.352H8.409z"/><path fill-rule="evenodd" clip-rule="evenodd" fill="#1a1a1a" d="M34.044 133.388h11.013v44.821H34.044z"/><path fill-rule="evenodd" clip-rule="evenodd" fill="#1a1a1a" d="M25.119 176.763h28.862v5.352H25.119z"/><path d="M24.998 81.626a1.238 1.238 0 0 1 0-2.476c.374 0 .712-1.012 1.062-2.057.667-1.995 1.357-4.059 3.789-4.059 2.433 0 3.123 2.064 3.79 4.059.35 1.045.688 2.057 1.061 2.057.375 0 .712-1.012 1.062-2.057.667-1.995 1.357-4.059 3.79-4.059s3.123 2.064 3.79 4.059c.349 1.045.688 2.057 1.062 2.057s.712-1.012 1.062-2.057c.667-1.995 1.357-4.059 3.789-4.059 2.433 0 3.123 2.064 3.79 4.059.349 1.045.687 2.057 1.061 2.057a1.238 1.238 0 1 1 0 2.476c-2.148 0-2.765-1.844-3.402-3.75-.389-1.162-.791-2.366-1.449-2.366-.657 0-1.06 1.204-1.449 2.366-.637 1.906-1.253 3.75-3.402 3.75s-2.765-1.844-3.402-3.75c-.389-1.162-.792-2.366-1.449-2.366s-1.06 1.204-1.449 2.366c-.637 1.906-1.253 3.75-3.402 3.75-2.148 0-2.765-1.844-3.402-3.75-.389-1.162-.791-2.366-1.449-2.366s-1.06 1.204-1.449 2.366c-.639 1.906-1.255 3.75-3.404 3.75zm-5.519 23.264a1.238 1.238 0 0 1 0-2.475c.429 0 .78-1.017 1.143-2.066.688-1.99 1.4-4.05 3.875-4.05s3.187 2.06 3.875 4.05c.363 1.05.714 2.066 1.143 2.066.429 0 .78-1.017 1.143-2.066.688-1.99 1.4-4.05 3.874-4.05 2.475 0 3.187 2.061 3.875 4.05.363 1.05.715 2.066 1.143 2.066.429 0 .781-1.017 1.144-2.066.688-1.99 1.4-4.05 3.875-4.05s3.187 2.06 3.875 4.05c.363 1.05.714 2.066 1.143 2.066.429 0 .78-1.017 1.143-2.066.688-1.99 1.401-4.05 3.875-4.05 2.475 0 3.187 2.06 3.875 4.05.363 1.05.714 2.066 1.143 2.066a1.237 1.237 0 1 1 0 2.475c-2.18 0-2.817-1.839-3.474-3.739-.403-1.167-.822-2.376-1.544-2.376-.723 0-1.141 1.209-1.544 2.376-.657 1.9-1.293 3.739-3.474 3.739s-2.817-1.839-3.474-3.739c-.403-1.167-.821-2.376-1.544-2.376-.722 0-1.141 1.209-1.544 2.376-.657 1.9-1.294 3.739-3.474 3.739-2.181 0-2.816-1.838-3.474-3.739-.403-1.167-.822-2.376-1.545-2.376-.722 0-1.14 1.209-1.543 2.376-.657 1.9-1.294 3.739-3.474 3.739-2.181 0-2.817-1.839-3.474-3.739-.403-1.167-.822-2.376-1.544-2.376-.722 0-1.14 1.209-1.544 2.376-.657 1.9-1.294 3.739-3.474 3.739zm-6.389 28.498a1.237 1.237 0 1 1 0-2.475c.513 0 .888-1.026 1.274-2.086.722-1.979 1.47-4.03 4.018-4.03s3.296 2.051 4.018 4.031c.387 1.06.761 2.085 1.274 2.085s.888-1.026 1.274-2.086c.722-1.979 1.47-4.03 4.018-4.03s3.296 2.051 4.019 4.031c.386 1.059.761 2.085 1.274 2.085s.888-1.026 1.274-2.086c.722-1.979 1.47-4.03 4.019-4.03 2.548 0 3.295 2.051 4.018 4.03.386 1.06.761 2.086 1.274 2.086s.888-1.026 1.274-2.086c.722-1.979 1.47-4.03 4.018-4.03s3.296 2.051 4.018 4.03c.386 1.06.761 2.086 1.274 2.086.514 0 .888-1.026 1.274-2.086.722-1.979 1.47-4.03 4.018-4.03s3.296 2.051 4.018 4.03c.387 1.06.761 2.086 1.274 2.086a1.238 1.238 0 0 1 0 2.475c-2.238 0-2.906-1.829-3.596-3.72-.429-1.177-.874-2.396-1.697-2.396-.823 0-1.268 1.219-1.697 2.396-.689 1.891-1.356 3.72-3.595 3.72-2.238 0-2.906-1.829-3.595-3.72-.429-1.177-.874-2.396-1.697-2.396-.823 0-1.268 1.219-1.697 2.396-.689 1.891-1.357 3.72-3.595 3.72-2.239 0-2.906-1.829-3.595-3.72-.429-1.177-.874-2.396-1.697-2.396-.824 0-1.269 1.219-1.697 2.396-.689 1.891-1.357 3.72-3.595 3.72-2.239 0-2.906-1.829-3.595-3.72-.429-1.177-.874-2.396-1.697-2.396-.823 0-1.267 1.219-1.697 2.396-.689 1.891-1.357 3.72-3.595 3.72-2.238 0-2.906-1.829-3.595-3.72-.429-1.177-.874-2.396-1.697-2.396-.823 0-1.267 1.219-1.697 2.396-.69 1.891-1.358 3.72-3.596 3.72z" fill="#ccc"/><g clip-rule="evenodd"><g fill-rule="evenodd"><ellipse transform="rotate(-76.938 46.665 45.46)" cx="46.662" cy="45.459" rx=".518" ry=".332" fill="#e7b791"/><ellipse transform="scale(-1) rotate(76.974 56.9 -52.605)" cx="41.825" cy="45.241" rx=".518" ry=".331" fill="#e7b791"/><path d="M42.233 47.948c-.406 1.057-1.372 2.429-2.818 3.389l.228.328c1.231-.599 2.375-1.556 2.909-2.287.274-.378.058-1.247-.319-1.43zM44.844 48.417c1.085.321 2.835 1.533 3.907 2.899l.309-.253c-.695-1.18-2.045-2.602-2.816-3.076-.398-.245-1.247.039-1.4.43z" fill="#1a1a1a"/><g fill="#323232"><path d="M44.452 58.897l-.302-6.495h1.399l-.292 6.495h-.805z"/><path d="M43.141 58.897l-.303-6.495h1.399l-.292 6.495h-.804z"/></g><path fill="#1a1a1a" d="M42.72 52.484h2.929v.304H42.72z"/><path d="M45.649 52.628l.509-4.693-1.143-.5h-1.644c-.381.167-.911.303-1.144.5l.492 4.693h2.93z" fill="#323232"/><path fill="#f5f0f0" d="M43.372 47.435l.821 3.954.822-3.954z"/><g fill="#1a1a1a"><path d="M43.372 47.435l-.771.866.891.764-.637.414 1.338 1.91zM45.015 47.435l.77.866-.892.764.637.414-1.337 1.91z"/></g><path fill="#1a1a1a" d="M44.092 52.628h.223v-1.413l-.122.116-.101-.096z"/><path fill="#f5f0f0" d="M43.372 47.435l.529-.521.302.521-.682.721zM45.015 47.435l-.516-.521-.296.521.666.721z"/><path fill="#323232" d="M43.521 48.156l.682-.36.666.36-.666-.721z"/><path fill="#323232" d="M44.203 47.435l-.341.361.341.958.342-.958z"/><path fill="#323232" d="M44.081 48.411h.227l.296 1.001-.411 1.977-.411-1.977z"/><ellipse cx="43.147" cy="58.897" rx=".799" ry=".401" fill="#1a1a1a"/><ellipse cx="45.251" cy="58.897" rx=".799" ry=".401" fill="#1a1a1a"/><path d="M49.436 51.076c.109.097.096.178.004.227.18.122.214.349.139.435-.146.166-.449.139-.674-.06-.226-.199-.29-.496-.143-.662.146-.166.448-.139.674.06zM39.04 51.4c-.11.097-.096.179-.004.228-.18.122-.214.349-.139.434.146.166.448.139.674-.06.226-.199.29-.495.144-.661-.147-.167-.449-.14-.675.059zM44.203 47.434c1.331 0 2.416-.836 2.416-1.862 0-1.026-1.085-1.862-2.416-1.862s-2.416.836-2.416 1.862c0 1.026 1.086 1.862 2.416 1.862z" fill="#e7b791"/><g fill="#323232"><ellipse cx="43.469" cy="45.392" rx=".134" ry=".235"/><ellipse cx="44.938" cy="45.392" rx=".134" ry=".235"/></g><path d="M45.359 43.398c-.419 1.306-2.437 2.294-3.662 1.797.27-1.729 2.337-2.724 3.662-1.797z" fill="#5e3a1d"/><path d="M45.139 43.339c-.241 1.016.753 2.142 1.523 2.12.124-.839-.634-1.967-1.523-2.12z" fill="#5e3a1d"/><path d="M45.001 46.264c-.348.067-1.198.061-1.595 0 .41.492 1.268.509 1.595 0z" fill="#c79369"/></g><g fill-rule="evenodd"><path d="M35.183 43.396c2.241 0 4.076 2.758 4.229 6.25a6.814 6.814 0 0 1-4.229 1.461 6.814 6.814 0 0 1-4.229-1.461c.153-3.491 1.988-6.25 4.229-6.25z" fill="#d9eced"/><path d="M36.422 48.491c.799.848 1.304 2.246 2.668 3.152l-.215.309c-1.161-.565-2.241-1.468-2.745-2.158-.258-.355.021-1.591.292-1.303zM35.181 48.887c-1.024.303-2.675 1.446-3.686 2.735l-.292-.239c.656-1.113 1.929-2.454 2.657-2.902.375-.23 1.176.038 1.321.406z" fill="#e7b791"/><g fill="#e7b791"><path d="M34.937 58.92c.095-2.042.191-4.084.285-6.127h-1.319l.275 6.127h.759z"/><path d="M36.174 58.92l.285-6.127h-1.32l.275 6.127h.76z"/></g><path d="M34.531 51.43l-.599-2.985.727-.317h1.045c.242.124.571.208.727.372l-.591 2.93h-1.309z" fill="#e7b791"/><ellipse cx="36.169" cy="58.92" rx=".754" ry=".378" fill="#f5f0f0"/><ellipse cx="34.184" cy="58.92" rx=".753" ry=".378" fill="#f5f0f0"/><path d="M30.848 51.396c-.104.092-.09.168-.004.215-.169.115-.202.329-.131.41.139.157.423.131.636-.057.213-.188.274-.467.135-.624-.138-.156-.423-.132-.636.056zM39.357 51.615c.104.091.09.168.004.214.169.115.202.329.131.41-.138.157-.423.131-.636-.056-.213-.188-.273-.468-.135-.624.139-.157.423-.131.636.056zM34.659 47.257h1.045v1.475h-1.045z" fill="#e7b791"/><ellipse cx="35.183" cy="44.879" rx="1.394" ry="1.38" fill="#5e3a1d"/><ellipse cx="35.183" cy="45.183" rx="1.576" ry="1.076" fill="#f5f0f0"/><path d="M35.183 46.26c.965 0 1.753-.439 1.753-.978 0-.539-.787-.978-1.753-.978-.965 0-1.753.439-1.753.978 0 .539.788.978 1.753.978z" fill="#5e3a1d"/><path d="M35.172 48.105c1.255 0 2.28-.789 2.28-1.757 0-.968-1.024-1.757-2.28-1.757-1.255 0-2.28.79-2.28 1.757 0 .968 1.025 1.757 2.28 1.757z" fill="#e7b791"/><g fill="#323232"><ellipse cx="35.865" cy="46.298" rx=".127" ry=".222"/><ellipse cx="34.479" cy="46.298" rx=".127" ry=".222"/></g><path d="M35.969 47.011c-.347.067-1.198.061-1.595 0 .41.491 1.269.508 1.595 0z" fill="#c79369"/><path d="M34.339 51.43l-.294-1.938a.355.355 0 0 1-.008-.073c0-.252.277-.456.619-.456.223 0 .418.087.527.217.109-.13.304-.217.527-.217.342 0 .619.204.619.456a.335.335 0 0 1-.007.071l-.287 1.94h-1.696z" fill="#f5f0f0"/><path d="M35.183 51.208c2.241 0 4.076 2.758 4.229 6.25a6.814 6.814 0 0 1-4.229 1.461 6.814 6.814 0 0 1-4.229-1.461c.153-3.491 1.988-6.25 4.229-6.25z" fill="#f5f0f0"/><ellipse transform="scale(-1) rotate(76.945 58.322 -41.39)" cx="32.893" cy="46.348" rx=".518" ry=".331" fill="#e7b791"/><ellipse transform="rotate(-76.945 37.45 46.37)" cx="37.451" cy="46.372" rx=".518" ry=".332" fill="#e7b791"/><g fill="#5e3a1d"><path d="M35.024 44.587c.123.981 1.494 1.958 2.487 1.775.05-1.259-1.357-2.248-2.487-1.775z"/><path d="M35.291 44.587c-.124.981-1.494 1.958-2.487 1.775-.05-1.259 1.356-2.248 2.487-1.775z"/></g></g><g fill="none" stroke="#f5f0f0" stroke-width=".216" stroke-miterlimit="22.926"><path d="M30.436 51.666c-.334.479-.458 1.215-.338 2.052M30.674 51.766c-.077.58.153 1.29.644 1.978"/></g><path d="M31.936 51.321a.4.4 0 0 1-.055.054.426.426 0 0 1-.343.685.427.427 0 0 1-.703.303.426.426 0 0 1-.733-.219.426.426 0 0 1-.421-.639.427.427 0 0 1 .088-.761.426.426 0 0 1 .557-.526.427.427 0 0 1 .72-.109c.017.02.031.042.045.063a.427.427 0 0 1 .615.457.418.418 0 0 1 .18.089.43.43 0 0 1 .05.603z" fill-rule="evenodd" fill="#f5f0f0"/></g><path d="M101.903 10.611c-13.274-.643-34.79 20.262-48.334 14.652C56.242 8.946 73.102-.103 87.365 2.375c5.264.915 10.067 2.62 14.538 8.236z" fill-rule="evenodd" clip-rule="evenodd" fill="#5e3a1d"/><path d="M101.899 11.088C83.222 6.69 57.862 30.354 50.642 8.781c9.259 3.561 10.307.112 19.132-4.508 8.899-4.659 22.183-5.674 32.125 6.815z" fill-rule="evenodd" clip-rule="evenodd" fill="#5e3a1d"/><path d="M104.207 15.75C87.353 6.581 56.648 22.714 55.376 0c7.99 5.878 9.912 2.828 19.643.7 9.813-2.146 22.894.381 29.188 15.05zM127.117 34.978c8.548 0 15.519-6.901 15.519-15.362s-6.971-15.362-15.519-15.362c-8.547 0-15.518 6.901-15.518 15.362.001 8.461 6.971 15.362 15.518 15.362z" fill-rule="evenodd" clip-rule="evenodd" fill="#5e3a1d"/><path d="M127.117 34.978c9.661 0 17.54-5.382 17.54-11.981s-7.879-11.981-17.54-11.981c-9.66 0-17.539 5.382-17.539 11.981s7.879 11.981 17.539 11.981z" fill-rule="evenodd" clip-rule="evenodd" fill="#f5f0f0"/><path d="M127.118 34.978c10.744 0 19.508-4.888 19.508-10.88 0-5.993-8.764-10.88-19.508-10.88-10.745 0-19.509 4.888-19.509 10.88.001 5.992 8.764 10.88 19.509 10.88z" fill-rule="evenodd" clip-rule="evenodd" fill="#5e3a1d"/><path d="M126.99 55.516c12.151 0 22.063-8.785 22.063-19.555s-9.911-19.556-22.063-19.556c-12.151 0-22.062 8.785-22.062 19.556s9.911 19.555 22.062 19.555z" fill-rule="evenodd" clip-rule="evenodd" fill="#e7b791"/><g fill-rule="evenodd" clip-rule="evenodd" fill="#323232"><path d="M131.303 40.957c.776 0 1.409-1.108 1.409-2.467s-.633-2.467-1.409-2.467-1.41 1.108-1.41 2.467.634 2.467 1.41 2.467zM115.879 40.957c.776 0 1.409-1.108 1.409-2.467s-.633-2.467-1.409-2.467-1.41 1.108-1.41 2.467.634 2.467 1.41 2.467z"/></g><path d="M132.464 46.429c-3.868.749-13.336.683-17.747 0 4.555 5.472 14.113 5.662 17.747 0z" fill-rule="evenodd" clip-rule="evenodd" fill="#c79369"/><ellipse transform="rotate(-103.044 104.572 35.96)" cx="104.572" cy="35.961" rx="5.761" ry="3.687" fill-rule="evenodd" clip-rule="evenodd" fill="#e7b791"/><ellipse transform="rotate(-76.956 149.227 36.227)" cx="149.227" cy="36.227" rx="5.761" ry="3.687" fill-rule="evenodd" clip-rule="evenodd" fill="#e7b791"/><g fill-rule="evenodd" clip-rule="evenodd" fill="#5e3a1d"><path d="M131.941 15.568c1.808 1.073-10.961 6.007-5.793 6.636 12.197 1.483 18.82 17.713 26.883 13.926-.64-12.908-12.146-22.423-21.09-20.562z"/><path d="M145.957 20.826c-21.34.746-31.076 20.44-45.234 14.521 1.38-19.216 23.853-29.936 45.234-14.521z"/></g></svg>