<?xml version="1.0" encoding="UTF-8" standalone="no"?>
<svg
   xmlns:dc="http://purl.org/dc/elements/1.1/"
   xmlns:cc="http://creativecommons.org/ns#"
   xmlns:rdf="http://www.w3.org/1999/02/22-rdf-syntax-ns#"
   xmlns:svg="http://www.w3.org/2000/svg"
   xmlns="http://www.w3.org/2000/svg"
   height="98.542999"
   width="137.543"
   xml:space="preserve"
   viewBox="0 0 137.543 98.543"
   y="0px"
   x="0px"
   id="Capa_1"
   version="1.1"><metadata
     id="metadata83"><rdf:RDF><cc:Work
         rdf:about=""><dc:format>image/svg+xml</dc:format><dc:type
           rdf:resource="http://purl.org/dc/dcmitype/StillImage" /><dc:title></dc:title></cc:Work></rdf:RDF></metadata><defs
     id="defs81" /><g
     transform="matrix(0.86663433,0,0,0.69491526,9.1717568,1.9811703)"
     id="g3"><polygon
       id="polygon5"
       points="57.571,125.064 79.971,137.543 102.372,125.064 124.772,137.543 124.772,12.479 102.372,0 79.971,12.479 57.571,0 35.171,12.479 12.771,0 12.771,125.064 35.171,137.543 "
       style="fill:#cfcec7" /><polygon
       id="polygon7"
       points="58.048,120.996 79.494,132.573 100.94,120.996 122.386,132.573 122.386,16.547 100.94,4.97 79.494,16.547 58.048,4.97 36.602,16.547 15.157,4.97 15.157,120.996 36.602,132.573 "
       style="opacity:0.28000004;fill:#ffffff" /><path
       id="path9"
       d="m 100.94,120.996 21.446,11.577 0,-34.243 c -3.769,0.649 -8.806,2.586 -11.436,1.141 -4.305,-2.365 -12.196,10.25 -14.348,9.461 -2.152,-0.788 -2.87,-10.644 -1.076,-15.768 1.794,-5.125 -2.87,-12.615 -4.663,-17.74 -1.793,-5.125 -11.653,-0.227 -13.805,2.139 -2.152,2.365 0.175,15.995 0.892,20.331 0.717,4.336 -5.021,13.009 -9.326,18.134 -1.717,2.044 -2.177,5.783 -2.111,9.538 l 12.98,7.007 21.447,-11.577 z"
       style="opacity:0.6;fill:#3ead26" /><path
       id="path11"
       d="M 97.08,30.648 C 88.014,27.326 71.392,29.818 66.481,25.251 61.57,20.684 59.304,12.795 58.926,10.305 58.801,9.485 57.446,7.943 55.687,6.246 L 36.602,16.547 15.157,4.97 l 0,76.798 c 2.566,1.566 5.009,2.505 6.371,1.608 3.777,-2.491 18.51,-23.665 23.799,-24.496 5.289,-0.83 12.466,4.567 10.577,11.21 -1.889,6.643 9.066,10.379 10.2,3.736 C 67.237,67.184 82.725,48.5 88.769,47.67 94.813,46.84 106.146,33.969 97.08,30.648 Z"
       style="opacity:0.6;fill:#3ead26" /><path
       id="path13"
       d="m 51.901,94.208 c -2.434,0.573 -5.042,-3.63 -7.127,-2.293 -2.086,1.337 -4.52,4.776 -6.606,5.159 -2.086,0.382 -7.476,8.216 -7.649,10.318 -0.173,2.102 -4.694,7.834 -7.649,10.126 -1.793,1.391 -3.901,3.41 -5.286,4.787 l 19.019,10.267 12.47,-6.731 c 0.074,-0.768 0.116,-1.678 0.047,-2.591 -0.174,-2.293 3.303,-3.248 4.694,-5.923 1.391,-2.675 -0.695,-6.497 -3.303,-8.98 -2.608,-2.484 2.26,-3.248 3.303,-6.305 1.043,-3.057 3.999,-3.248 5.389,-4.968 1.391,-1.72 -4.868,-3.439 -7.302,-2.866 z"
       style="opacity:0.6;fill:#3ead26" /><path
       id="path15"
       d="m 122.386,16.547 -6.522,-3.521 -1.644,0.263 c 0,0 -5.677,11.155 -6.021,11.912 -0.344,0.756 -1.548,3.781 -1.548,4.538 0,0.756 -2.064,5.672 -1.72,7.185 0.344,1.512 2.58,5.294 3.956,6.428 1.377,1.135 1.893,2.647 2.753,5.294 0.86,2.647 -0.86,3.971 -1.721,8.13 -0.86,4.16 -2.408,5.483 -4.301,9.265 -1.892,3.782 -2.408,6.618 -1.548,10.21 0.665,2.774 12.814,11.183 18.316,14.871 l 0,-74.575 z"
       style="opacity:0.6;fill:#3ead26" /><g
       id="g17"
       style="opacity:0.8"><path
         id="path19"
         d="m 116.664,31.77 c 0.689,0.48 0.858,1.429 0.377,2.118 l -0.218,0.312 c -0.48,0.689 -1.428,0.858 -2.117,0.377 l -12.474,-8.702 c -0.689,-0.481 -0.858,-1.429 -0.377,-2.118 l 0.218,-0.312 c 0.48,-0.689 1.428,-0.858 2.117,-0.377 l 12.474,8.702 z"
         style="fill:#484e4e" /><path
         id="path21"
         d="m 103.694,34.08 c -0.48,0.689 -0.312,1.637 0.378,2.117 l 0.312,0.218 c 0.689,0.48 1.637,0.312 2.118,-0.377 l 8.702,-12.474 c 0.48,-0.689 0.312,-1.637 -0.377,-2.117 l -0.312,-0.218 c -0.689,-0.48 -1.637,-0.312 -2.118,0.377 l -8.703,12.474 z"
         style="fill:#484e4e" /></g><g
       id="g23"><g
         id="g25"><path
           id="path27"
           d="m 40.112,104.046 c 0,0 0.158,0.076 0.45,0.208"
           style="fill:none;stroke:#ffffff;stroke-width:2;stroke-linecap:round;stroke-linejoin:round" /><path
           id="path29"
           d="m 44.306,105.757 c 7.163,2.581 21.281,6.061 24.336,-5.142 C 72.777,85.454 86.694,84.824 89.45,85.927 92.207,87.03 109.443,71.035 87.002,61.651 71.841,55.311 60.647,39.086 69.192,35.228 c 6.913,-3.122 25.01,-4.981 31.672,-5.578"
           style="fill:none;stroke:#ffffff;stroke-width:2;stroke-linecap:round;stroke-linejoin:round;stroke-dasharray:1.0094, 4.0378" /><path
           id="path31"
           d="m 102.879,29.478 c 0.321,-0.026 0.494,-0.039 0.494,-0.039"
           style="fill:none;stroke:#ffffff;stroke-width:2;stroke-linecap:round;stroke-linejoin:round" /></g></g><g
       id="g33"><polygon
         id="polygon35"
         points="57.571,0 35.171,12.479 35.171,137.543 57.571,125.064 "
         style="opacity:0.4;fill:#ffffff" /><polygon
         id="polygon37"
         points="102.372,0 79.971,12.479 79.971,137.543 102.372,125.064 "
         style="opacity:0.4;fill:#ffffff" /></g><g
       id="g39"><circle
         id="circle41"
         r="13.104"
         cy="78.781998"
         cx="40.112"
         style="fill:#ff7526" /><circle
         id="circle43"
         r="9.5629997"
         cy="78.781998"
         cx="40.112"
         style="fill:#ff7526" /><path
         id="path45"
         d="m 40.112,78.782 -13.104,0 c 0,11.39 13.104,25.264 13.104,25.264 0,0 13.104,-13.874 13.104,-25.264 l -13.104,0 z"
         style="fill:#ff7526" /><circle
         id="circle47"
         r="6.0440001"
         cy="78.781998"
         cx="40.112"
         style="fill:#ffffff" /></g></g><g
     transform="translate(0,-38.999962)"
     id="g49" /><g
     transform="translate(0,-38.999962)"
     id="g51" /><g
     transform="translate(0,-38.999962)"
     id="g53" /><g
     transform="translate(0,-38.999962)"
     id="g55" /><g
     transform="translate(0,-38.999962)"
     id="g57" /><g
     transform="translate(0,-38.999962)"
     id="g59" /><g
     transform="translate(0,-38.999962)"
     id="g61" /><g
     transform="translate(0,-38.999962)"
     id="g63" /><g
     transform="translate(0,-38.999962)"
     id="g65" /><g
     transform="translate(0,-38.999962)"
     id="g67" /><g
     transform="translate(0,-38.999962)"
     id="g69" /><g
     transform="translate(0,-38.999962)"
     id="g71" /><g
     transform="translate(0,-38.999962)"
     id="g73" /><g
     transform="translate(0,-38.999962)"
     id="g75" /><g
     transform="translate(0,-38.999962)"
     id="g77" /></svg>