<?xml version="1.0" encoding="UTF-8" standalone="no"?>
<svg
   xmlns:dc="http://purl.org/dc/elements/1.1/"
   xmlns:cc="http://creativecommons.org/ns#"
   xmlns:rdf="http://www.w3.org/1999/02/22-rdf-syntax-ns#"
   xmlns:svg="http://www.w3.org/2000/svg"
   xmlns="http://www.w3.org/2000/svg"
   height="51.459999"
   width="96.459999"
   xml:space="preserve"
   viewBox="0 0 96.46 51.46"
   y="0px"
   x="0px"
   id="Capa_1"
   version="1.1"><metadata
     id="metadata73"><rdf:RDF><cc:Work
         rdf:about=""><dc:format>image/svg+xml</dc:format><dc:type
           rdf:resource="http://purl.org/dc/dcmitype/StillImage" /><dc:title></dc:title></cc:Work></rdf:RDF></metadata><defs
     id="defs71" /><g
     transform="matrix(0.65254237,0,0,0.65254237,16.757881,-6.2420746)"
     id="g3"><path
       id="path5"
       d="m 63.9,28.673 c 0,1.356 -2.528,2.455 -3.72,2.455 l -23.9,0 c -1.191,0 -3.72,-1.099 -3.72,-2.455 l 1.563,-15.749 c 0,-1.355 0.966,-2.454 2.157,-2.454 l 23.9,0 c 1.191,0 2.158,1.099 2.158,2.454 L 63.9,28.673 Z"
       style="fill:#484e4e" /><path
       id="path7"
       d="m 59.066,14.383 c 0,0.791 -0.563,1.432 -1.259,1.432 l -19.357,0 c -0.695,0 -1.259,-0.641 -1.259,-1.432 l 0,0 c 0,-0.791 0.564,-1.432 1.259,-1.432 l 19.357,0 c 0.695,0 1.259,0.641 1.259,1.432 l 0,0 z"
       style="fill:#ffffff" /><path
       id="path9"
       d="m 81.884,25.859 c 0,1.128 -0.81,2.043 -1.808,2.043 l -2.216,0 c -0.998,0 -1.808,-0.915 -1.808,-2.043 l 0,-5.591 c 0,-1.129 0.81,-2.043 1.808,-2.043 l 2.217,0 c 0.998,0 1.808,0.915 1.808,2.043 l 0,5.591 z"
       style="fill:#484e4e" /><path
       id="path11"
       d="m 25.101,25.283 0,-3.435 c 0,-1.339 -1.085,-2.424 -2.424,-2.424 l -8.89,0 c -1.338,0 -2.424,1.085 -2.424,2.424 l 0,3.435 13.738,0 z"
       style="fill:#484e4e" /><path
       id="path13"
       d="m 50.02,40.786 -2.099,0 c -0.818,0 -1.48,0.663 -1.48,1.48 l 0,11.875 c 0,0.817 0.663,1.48 1.48,1.48 l 2.099,0 0,-14.835 z"
       style="fill:#484e4e" /><path
       id="path15"
       d="m 46.441,40.786 2.098,0 c 0.818,0 1.481,0.663 1.481,1.48 l 0,11.875 c 0,0.817 -0.663,1.48 -1.481,1.48 l -2.098,0 0,-14.835 z"
       style="fill:#484e4e" /><path
       id="path17"
       d="m 96.308,78.639 c 0,4.061 -3.292,7.352 -7.353,7.352 l -81.45,0 c -4.061,0 -7.352,-3.292 -7.352,-7.352 l 0,-47.183 c 0,-4.061 3.292,-7.352 7.352,-7.352 l 81.451,0 c 4.061,0 7.353,3.292 7.353,7.352 l 0,47.183 z"
       style="fill:#cfcec7" /><rect
       id="rect19"
       height="33.101002"
       width="96.459999"
       style="fill:#484e4e"
       y="38.497002"
       x="0" /><g
       id="g21"><circle
         id="circle23"
         r="3.7490001"
         cy="61.905998"
         cx="83.474998"
         style="fill:#cfcec7" /><circle
         id="circle25"
         r="2.21"
         cy="61.905998"
         cx="83.474998"
         style="fill:#ff7526" /></g><path
       id="path27"
       d="m 48.128,10.469 -11.848,0 c -1.191,0 -2.157,1.099 -2.157,2.454 l -1.109,11.181 -7.912,0 0,-2.256 c 0,-1.339 -1.085,-2.424 -2.424,-2.424 l -8.89,0 c -1.338,0 -2.424,1.085 -2.424,2.424 l 0,2.256 -3.859,0 c -4.061,0 -7.352,3.292 -7.352,7.352 l 0,7.041 -0.153,0 0,33.101 0.152,0 0,7.041 c 0,4.061 3.292,7.352 7.352,7.352 l 40.624,0 0,-75.522 z"
       style="opacity:0.16000001;fill:#ffffff" /><circle
       id="circle29"
       r="27.011"
       cy="55.801998"
       cx="48.23"
       style="fill:#ff7526" /><circle
       id="circle31"
       r="21.295"
       cy="55.801998"
       cx="48.23"
       style="fill:#484e4e" /><circle
       id="circle33"
       r="15.899"
       cy="55.801998"
       cx="48.23"
       style="fill:#cfcec7" /><circle
       id="circle35"
       r="11.447"
       cy="55.801998"
       cx="48.23"
       style="fill:#484e4e" /><circle
       id="circle37"
       r="4.7290001"
       cy="48.681999"
       cx="41.534"
       style="fill:#ffffff" /></g><g
     transform="translate(0,-44.999955)"
     id="g39" /><g
     transform="translate(0,-44.999955)"
     id="g41" /><g
     transform="translate(0,-44.999955)"
     id="g43" /><g
     transform="translate(0,-44.999955)"
     id="g45" /><g
     transform="translate(0,-44.999955)"
     id="g47" /><g
     transform="translate(0,-44.999955)"
     id="g49" /><g
     transform="translate(0,-44.999955)"
     id="g51" /><g
     transform="translate(0,-44.999955)"
     id="g53" /><g
     transform="translate(0,-44.999955)"
     id="g55" /><g
     transform="translate(0,-44.999955)"
     id="g57" /><g
     transform="translate(0,-44.999955)"
     id="g59" /><g
     transform="translate(0,-44.999955)"
     id="g61" /><g
     transform="translate(0,-44.999955)"
     id="g63" /><g
     transform="translate(0,-44.999955)"
     id="g65" /><g
     transform="translate(0,-44.999955)"
     id="g67" /></svg>