<?xml version="1.0" encoding="UTF-8" standalone="no"?>
<svg
   xmlns:dc="http://purl.org/dc/elements/1.1/"
   xmlns:cc="http://creativecommons.org/ns#"
   xmlns:rdf="http://www.w3.org/1999/02/22-rdf-syntax-ns#"
   xmlns:svg="http://www.w3.org/2000/svg"
   xmlns="http://www.w3.org/2000/svg"
   height="160.52399"
   width="292.52399"
   xml:space="preserve"
   viewBox="0 0 292.524 160.524"
   y="0px"
   x="0px"
   id="Capa_1"
   version="1.1"><metadata
     id="metadata53"><rdf:RDF><cc:Work
         rdf:about=""><dc:format>image/svg+xml</dc:format><dc:type
           rdf:resource="http://purl.org/dc/dcmitype/StillImage" /><dc:title></dc:title></cc:Work></rdf:RDF></metadata><defs
     id="defs51" /><g
     transform="translate(0,-65.999835)"
     id="g3"><path
       id="path5"
       d="m 292.25,222.382 -33.86,-34.299 0.008,0 -112.136,-119.556 0,0 0,0 -0.001,0 0,0 -112.135,119.557 0.008,0 -33.861,34.298 c -0.368,0.372 -0.364,0.973 0.009,1.34 0.184,0.182 0.425,0.273 0.665,0.273 0.245,0 0.49,-0.094 0.675,-0.282 l 35.175,-35.631 26.386,0 -32.43,32.43 c -0.37,0.37 -0.37,0.97 0,1.34 0.185,0.185 0.427,0.278 0.67,0.278 0.243,0 0.485,-0.093 0.67,-0.278 l 33.77,-33.771 80.397,0 0.001,0 80.397,0 33.771,33.771 c 0.186,0.185 0.428,0.278 0.67,0.278 0.243,0 0.485,-0.093 0.671,-0.278 0.37,-0.371 0.37,-0.97 0,-1.34 l -32.431,-32.43 26.386,0 35.176,35.631 c 0.186,0.188 0.43,0.282 0.675,0.282 0.24,0 0.481,-0.091 0.666,-0.273 0.372,-0.367 0.376,-0.967 0.008,-1.34 z"
       style="fill:#299113" /><polygon
       id="polygon7"
       points="146.262,79.711 56.081,176.262 69.928,223.548 146.262,223.548 222.596,223.548 236.443,176.262 "
       style="fill:#ff7526" /><path
       id="path9"
       d="m 146.262,68.527 0,0 0,0 -112.136,119.557 0.008,0 -33.861,34.298 c -0.368,0.372 -0.364,0.973 0.009,1.34 0.184,0.182 0.425,0.273 0.665,0.273 0.245,0 0.49,-0.094 0.675,-0.282 l 35.175,-35.631 22.745,0 0.825,2.816 -29.613,29.614 c -0.37,0.37 -0.37,0.97 0,1.34 0.185,0.185 0.427,0.278 0.67,0.278 0.243,0 0.485,-0.093 0.67,-0.278 l 28.88,-28.88 8.954,30.574 76.334,0 0,-155.019 z"
       style="opacity:0.16000001;fill:#ffffff" /><polygon
       id="polygon11"
       points="146.262,223.548 198.66,223.548 146.262,124.247 93.863,223.548 "
       style="fill:#484e4e" /><g
       id="g13"><path
         id="path15"
         d="m 146.262,124.247 c 0,0 -9.12,30.061 -52.69,99.301 0,0 -2.702,-10.133 -10.809,-14.186 0,0 37.154,-35.464 63.499,-85.115 z"
         style="fill:#cfcec7" /><path
         id="path17"
         d="m 146.262,124.247 c 0,0 9.12,30.061 52.69,99.301 0,0 2.702,-10.133 10.809,-14.186 0,0 -37.154,-35.464 -63.499,-85.115 z"
         style="fill:#cfcec7" /></g></g><g
     transform="translate(0,-131.99985)"
     id="g19" /><g
     transform="translate(0,-131.99985)"
     id="g21" /><g
     transform="translate(0,-131.99985)"
     id="g23" /><g
     transform="translate(0,-131.99985)"
     id="g25" /><g
     transform="translate(0,-131.99985)"
     id="g27" /><g
     transform="translate(0,-131.99985)"
     id="g29" /><g
     transform="translate(0,-131.99985)"
     id="g31" /><g
     transform="translate(0,-131.99985)"
     id="g33" /><g
     transform="translate(0,-131.99985)"
     id="g35" /><g
     transform="translate(0,-131.99985)"
     id="g37" /><g
     transform="translate(0,-131.99985)"
     id="g39" /><g
     transform="translate(0,-131.99985)"
     id="g41" /><g
     transform="translate(0,-131.99985)"
     id="g43" /><g
     transform="translate(0,-131.99985)"
     id="g45" /><g
     transform="translate(0,-131.99985)"
     id="g47" /></svg>